<svg width="0" height="0" class="hidden">
  <symbol fill="none" xmlns="http://www.w3.org/2000/svg" viewBox="0 0 42 41" id="facebook">
    <path d="M35.7304 4.48291H6.27131C5.56285 4.48291 4.99048 5.05528 4.99048 5.76374V35.2229C4.99048 35.9313 5.56285 36.5037 6.27131 36.5037H35.7304C36.4389 36.5037 37.0113 35.9313 37.0113 35.2229V5.76374C37.0113 5.05528 36.4389 4.48291 35.7304 4.48291ZM32.032 13.829H29.4744C27.4691 13.829 27.0808 14.7816 27.0808 16.1825V19.2685H31.8679L31.2435 24.0996H27.0808V36.5037H22.0896V24.1036H17.9149V19.2685H22.0896V15.7062C22.0896 11.5715 24.6152 9.31805 28.3056 9.31805C30.0748 9.31805 31.5917 9.45013 32.036 9.51017V13.829H32.032Z" fill="#FF5722"></path>
  </symbol>
  <symbol fill="none" xmlns="http://www.w3.org/2000/svg" viewBox="0 0 42 41" id="linkedin">
    <path d="M35.7182 4.48291H6.2591C5.55064 4.48291 4.97827 5.05528 4.97827 5.76374V35.2229C4.97827 35.9313 5.55064 36.5037 6.2591 36.5037H35.7182C36.4267 36.5037 36.9991 35.9313 36.9991 35.2229V5.76374C36.9991 5.05528 36.4267 4.48291 35.7182 4.48291ZM14.4764 31.7686H9.72535V16.4867H14.4764V31.7686ZM12.1029 14.3973C11.5582 14.3973 11.0258 14.2358 10.573 13.9332C10.1201 13.6307 9.76715 13.2006 9.55873 12.6974C9.3503 12.1942 9.29577 11.6405 9.40202 11.1063C9.50828 10.5721 9.77055 10.0815 10.1557 9.69634C10.5408 9.31121 11.0315 9.04894 11.5657 8.94268C12.0998 8.83643 12.6535 8.89096 13.1567 9.09939C13.6599 9.30782 14.09 9.66078 14.3926 10.1136C14.6952 10.5665 14.8567 11.0989 14.8567 11.6436C14.8527 13.1645 13.6199 14.3973 12.1029 14.3973ZM32.264 31.7686H27.5169V24.3358C27.5169 22.5626 27.4849 20.2852 25.0473 20.2852C22.5777 20.2852 22.1974 22.2144 22.1974 24.2077V31.7686H17.4544V16.4867H22.0093V18.5761H22.0734C22.7058 17.3753 24.2548 16.1065 26.5683 16.1065C31.3794 16.1065 32.264 19.2725 32.264 23.3872V31.7686Z" fill="#FF5722"></path>
  </symbol>
  <symbol fill="none" xmlns="http://www.w3.org/2000/svg" viewBox="0 0 27 33" id="location">
    <g clip-path="url(#clip0_22_196)">
      <path d="M13.4998 20.1535C16.9927 20.1535 19.8332 17.313 19.8332 13.8201C19.8332 10.3273 16.9927 7.48682 13.4998 7.48682C10.007 7.48682 7.1665 10.3273 7.1665 13.8201C7.1665 17.313 10.007 20.1535 13.4998 20.1535ZM13.4998 10.6535C15.2463 10.6535 16.6665 12.0737 16.6665 13.8201C16.6665 15.5666 15.2463 16.9868 13.4998 16.9868C11.7534 16.9868 10.3332 15.5666 10.3332 13.8201C10.3332 12.0737 11.7534 10.6535 13.4998 10.6535Z" fill="#FF5722"></path>
      <path d="M12.2487 32.5255C12.5166 32.7169 12.8377 32.8197 13.167 32.8197C13.4963 32.8197 13.8173 32.7169 14.0853 32.5255C14.5667 32.1851 25.8796 24.0167 25.8337 13.82C25.8337 6.8359 20.1511 1.15332 13.167 1.15332C6.18291 1.15332 0.500322 6.8359 0.500322 13.8121C0.454406 24.0167 11.7673 32.1851 12.2487 32.5255ZM13.167 4.31999C18.4062 4.31999 22.667 8.58074 22.667 13.8279C22.7002 20.8547 15.7193 27.1643 13.167 29.2337C10.6162 27.1627 3.63374 20.8516 3.66699 13.82C3.66699 8.58074 7.92774 4.31999 13.167 4.31999Z" fill="#FF5722"></path>
    </g>
    <defs>
      <clipPath id="clip0_22_196">
        <rect width="26" height="32" fill="white" transform="translate(0.5 0.986816)"></rect>
      </clipPath>
    </defs>
  </symbol>
  <symbol fill="none" xmlns="http://www.w3.org/2000/svg" viewBox="0 0 28 23" id="mail">
    <g clip-path="url(#clip0_22_208)">
      <path d="M25.8125 1.17432H1.4375C0.918945 1.17432 0.5 1.59326 0.5 2.11182V20.8618C0.5 21.3804 0.918945 21.7993 1.4375 21.7993H25.8125C26.3311 21.7993 26.75 21.3804 26.75 20.8618V2.11182C26.75 1.59326 26.3311 1.17432 25.8125 1.17432ZM24.6406 4.42041V19.6899H2.60938V4.42041L1.80078 3.79053L2.95215 2.31104L4.20605 3.28662H23.0469L24.3008 2.31104L25.4521 3.79053L24.6406 4.42041ZM23.0469 3.28369L13.625 10.6079L4.20312 3.28369L2.94922 2.30811L1.79785 3.7876L2.60645 4.41748L12.6143 12.1987C12.9021 12.4223 13.2561 12.5437 13.6206 12.5437C13.9851 12.5437 14.3391 12.4223 14.627 12.1987L24.6406 4.42041L25.4492 3.79053L24.2979 2.31104L23.0469 3.28369Z" fill="#FF5722"></path>
    </g>
    <defs>
      <clipPath id="clip0_22_208">
        <rect width="27" height="22" fill="white" transform="translate(0.5 0.486816)"></rect>
      </clipPath>
    </defs>
  </symbol>
  <symbol fill="none" xmlns="http://www.w3.org/2000/svg" viewBox="0 0 22 35" id="phone">
    <g clip-path="url(#clip0_22_202)">
      <path d="M16.5419 1.44531H4.87518C2.45435 1.44531 0.500183 3.39948 0.500183 5.82031V29.1536C0.500183 31.5745 2.45435 33.5286 4.87518 33.5286H16.5419C18.9627 33.5286 20.9169 31.5745 20.9169 29.1536V5.82031C20.9169 3.39948 18.9627 1.44531 16.5419 1.44531ZM13.6252 30.612H7.79185V29.1536H13.6252V30.612ZM18.3648 26.237H3.05227V5.82031H18.3648V26.237Z" fill="#FF5722"></path>
    </g>
    <defs>
      <clipPath id="clip0_22_202">
        <rect width="21" height="34" fill="white" transform="translate(0.5 0.486816)"></rect>
      </clipPath>
    </defs>
  </symbol>
  <symbol fill="none" xmlns="http://www.w3.org/2000/svg" viewBox="0 0 42 41" id="twitter">
    <path d="M37.6651 10.1785C36.4403 10.7068 35.1074 11.087 33.7346 11.2351C35.1599 10.3883 36.2273 9.05052 36.7365 7.4727C35.399 8.26837 33.9337 8.82631 32.4057 9.12177C31.7671 8.43903 30.9947 7.89514 30.1366 7.52396C29.2786 7.15279 28.3533 6.96231 27.4185 6.96437C23.636 6.96437 20.594 10.0304 20.594 13.7928C20.594 14.3211 20.6581 14.8495 20.7621 15.3578C15.0985 15.0616 10.0472 12.3559 6.68901 8.21318C6.07711 9.25832 5.75646 10.4483 5.76041 11.6594C5.76041 14.029 6.96519 16.1183 8.80238 17.3471C7.71969 17.3045 6.66236 17.0069 5.71638 16.4785V16.5626C5.71638 19.8808 8.0619 22.6305 11.1879 23.2629C10.601 23.4154 9.99718 23.4934 9.39076 23.4951C8.94647 23.4951 8.5262 23.4511 8.10192 23.391C8.96649 26.0968 11.4841 28.0621 14.4821 28.1261C12.1365 29.9633 9.19864 31.044 6.00857 31.044C5.4362 31.044 4.90785 31.024 4.3595 30.9599C7.38546 32.9012 10.9758 34.0219 14.8423 34.0219C27.3944 34.0219 34.2629 23.6232 34.2629 14.5973C34.2629 14.3011 34.2629 14.0049 34.2429 13.7087C35.5717 12.7361 36.7365 11.5313 37.6651 10.1785Z" fill="#FF5722"></path>
  </symbol>
</svg>